<?xml version='1.0' encoding='UTF-8'?>
<svg width="41mm" height="41mm" version="1.1" viewBox="0 0 41 41" xmlns="http://www.w3.org/2000/svg"><path d="M2,2H3V3H2zM3,2H4V3H3zM4,2H5V3H4zM5,2H6V3H5zM6,2H7V3H6zM7,2H8V3H7zM8,2H9V3H8zM11,2H12V3H11zM14,2H15V3H14zM15,2H16V3H15zM16,2H17V3H16zM17,2H18V3H17zM18,2H19V3H18zM20,2H21V3H20zM21,2H22V3H21zM22,2H23V3H22zM23,2H24V3H23zM27,2H28V3H27zM28,2H29V3H28zM30,2H31V3H30zM32,2H33V3H32zM33,2H34V3H33zM34,2H35V3H34zM35,2H36V3H35zM36,2H37V3H36zM37,2H38V3H37zM38,2H39V3H38zM2,3H3V4H2zM8,3H9V4H8zM10,3H11V4H10zM11,3H12V4H11zM12,3H13V4H12zM16,3H17V4H16zM17,3H18V4H17zM18,3H19V4H18zM23,3H24V4H23zM26,3H27V4H26zM30,3H31V4H30zM32,3H33V4H32zM38,3H39V4H38zM2,4H3V5H2zM4,4H5V5H4zM5,4H6V5H5zM6,4H7V5H6zM8,4H9V5H8zM10,4H11V5H10zM12,4H13V5H12zM16,4H17V5H16zM18,4H19V5H18zM20,4H21V5H20zM22,4H23V5H22zM23,4H24V5H23zM25,4H26V5H25zM26,4H27V5H26zM29,4H30V5H29zM30,4H31V5H30zM32,4H33V5H32zM34,4H35V5H34zM35,4H36V5H35zM36,4H37V5H36zM38,4H39V5H38zM2,5H3V6H2zM4,5H5V6H4zM5,5H6V6H5zM6,5H7V6H6zM8,5H9V6H8zM10,5H11V6H10zM11,5H12V6H11zM14,5H15V6H14zM18,5H19V6H18zM19,5H20V6H19zM21,5H22V6H21zM22,5H23V6H22zM23,5H24V6H23zM24,5H25V6H24zM26,5H27V6H26zM27,5H28V6H27zM32,5H33V6H32zM34,5H35V6H34zM35,5H36V6H35zM36,5H37V6H36zM38,5H39V6H38zM2,6H3V7H2zM4,6H5V7H4zM5,6H6V7H5zM6,6H7V7H6zM8,6H9V7H8zM12,6H13V7H12zM17,6H18V7H17zM19,6H20V7H19zM20,6H21V7H20zM21,6H22V7H21zM22,6H23V7H22zM23,6H24V7H23zM25,6H26V7H25zM27,6H28V7H27zM30,6H31V7H30zM32,6H33V7H32zM34,6H35V7H34zM35,6H36V7H35zM36,6H37V7H36zM38,6H39V7H38zM2,7H3V8H2zM8,7H9V8H8zM12,7H13V8H12zM14,7H15V8H14zM17,7H18V8H17zM19,7H20V8H19zM22,7H23V8H22zM23,7H24V8H23zM28,7H29V8H28zM30,7H31V8H30zM32,7H33V8H32zM38,7H39V8H38zM2,8H3V9H2zM3,8H4V9H3zM4,8H5V9H4zM5,8H6V9H5zM6,8H7V9H6zM7,8H8V9H7zM8,8H9V9H8zM10,8H11V9H10zM12,8H13V9H12zM14,8H15V9H14zM16,8H17V9H16zM18,8H19V9H18zM20,8H21V9H20zM22,8H23V9H22zM24,8H25V9H24zM26,8H27V9H26zM28,8H29V9H28zM30,8H31V9H30zM32,8H33V9H32zM33,8H34V9H33zM34,8H35V9H34zM35,8H36V9H35zM36,8H37V9H36zM37,8H38V9H37zM38,8H39V9H38zM10,9H11V10H10zM11,9H12V10H11zM12,9H13V10H12zM13,9H14V10H13zM16,9H17V10H16zM17,9H18V10H17zM18,9H19V10H18zM19,9H20V10H19zM20,9H21V10H20zM21,9H22V10H21zM22,9H23V10H22zM28,9H29V10H28zM29,9H30V10H29zM30,9H31V10H30zM2,10H3V11H2zM8,10H9V11H8zM10,10H11V11H10zM11,10H12V11H11zM13,10H14V11H13zM18,10H19V11H18zM21,10H22V11H21zM24,10H25V11H24zM27,10H28V11H27zM28,10H29V11H28zM29,10H30V11H29zM30,10H31V11H30zM31,10H32V11H31zM32,10H33V11H32zM35,10H36V11H35zM36,10H37V11H36zM37,10H38V11H37zM2,11H3V12H2zM3,11H4V12H3zM4,11H5V12H4zM5,11H6V12H5zM6,11H7V12H6zM7,11H8V12H7zM9,11H10V12H9zM10,11H11V12H10zM11,11H12V12H11zM13,11H14V12H13zM14,11H15V12H14zM15,11H16V12H15zM16,11H17V12H16zM18,11H19V12H18zM19,11H20V12H19zM20,11H21V12H20zM21,11H22V12H21zM23,11H24V12H23zM24,11H25V12H24zM25,11H26V12H25zM27,11H28V12H27zM29,11H30V12H29zM33,11H34V12H33zM34,11H35V12H34zM35,11H36V12H35zM36,11H37V12H36zM37,11H38V12H37zM2,12H3V13H2zM5,12H6V13H5zM8,12H9V13H8zM12,12H13V13H12zM13,12H14V13H13zM14,12H15V13H14zM15,12H16V13H15zM17,12H18V13H17zM18,12H19V13H18zM19,12H20V13H19zM22,12H23V13H22zM24,12H25V13H24zM29,12H30V13H29zM30,12H31V13H30zM33,12H34V13H33zM37,12H38V13H37zM38,12H39V13H38zM2,13H3V14H2zM3,13H4V14H3zM4,13H5V14H4zM5,13H6V14H5zM12,13H13V14H12zM20,13H21V14H20zM22,13H23V14H22zM29,13H30V14H29zM33,13H34V14H33zM34,13H35V14H34zM35,13H36V14H35zM38,13H39V14H38zM2,14H3V15H2zM5,14H6V15H5zM7,14H8V15H7zM8,14H9V15H8zM10,14H11V15H10zM12,14H13V15H12zM16,14H17V15H16zM17,14H18V15H17zM18,14H19V15H18zM22,14H23V15H22zM25,14H26V15H25zM30,14H31V15H30zM32,14H33V15H32zM33,14H34V15H33zM35,14H36V15H35zM38,14H39V15H38zM4,15H5V16H4zM6,15H7V16H6zM13,15H14V16H13zM17,15H18V16H17zM21,15H22V16H21zM23,15H24V16H23zM25,15H26V16H25zM29,15H30V16H29zM30,15H31V16H30zM33,15H34V16H33zM35,15H36V16H35zM2,16H3V17H2zM4,16H5V17H4zM7,16H8V17H7zM8,16H9V17H8zM9,16H10V17H9zM11,16H12V17H11zM12,16H13V17H12zM13,16H14V17H13zM16,16H17V17H16zM17,16H18V17H17zM18,16H19V17H18zM20,16H21V17H20zM22,16H23V17H22zM23,16H24V17H23zM26,16H27V17H26zM27,16H28V17H27zM29,16H30V17H29zM33,16H34V17H33zM34,16H35V17H34zM35,16H36V17H35zM37,16H38V17H37zM38,16H39V17H38zM4,17H5V18H4zM5,17H6V18H5zM6,17H7V18H6zM7,17H8V18H7zM9,17H10V18H9zM14,17H15V18H14zM15,17H16V18H15zM22,17H23V18H22zM26,17H27V18H26zM29,17H30V18H29zM33,17H34V18H33zM35,17H36V18H35zM36,17H37V18H36zM38,17H39V18H38zM3,18H4V19H3zM6,18H7V19H6zM8,18H9V19H8zM11,18H12V19H11zM12,18H13V19H12zM15,18H16V19H15zM17,18H18V19H17zM20,18H21V19H20zM21,18H22V19H21zM24,18H25V19H24zM25,18H26V19H25zM26,18H27V19H26zM27,18H28V19H27zM28,18H29V19H28zM31,18H32V19H31zM32,18H33V19H32zM34,18H35V19H34zM36,18H37V19H36zM37,18H38V19H37zM38,18H39V19H38zM5,19H6V20H5zM7,19H8V20H7zM9,19H10V20H9zM12,19H13V20H12zM14,19H15V20H14zM16,19H17V20H16zM18,19H19V20H18zM19,19H20V20H19zM21,19H22V20H21zM22,19H23V20H22zM23,19H24V20H23zM25,19H26V20H25zM28,19H29V20H28zM29,19H30V20H29zM30,19H31V20H30zM35,19H36V20H35zM36,19H37V20H36zM37,19H38V20H37zM4,20H5V21H4zM5,20H6V21H5zM6,20H7V21H6zM8,20H9V21H8zM10,20H11V21H10zM11,20H12V21H11zM12,20H13V21H12zM13,20H14V21H13zM16,20H17V21H16zM18,20H19V21H18zM19,20H20V21H19zM20,20H21V21H20zM21,20H22V21H21zM22,20H23V21H22zM23,20H24V21H23zM24,20H25V21H24zM25,20H26V21H25zM26,20H27V21H26zM27,20H28V21H27zM29,20H30V21H29zM32,20H33V21H32zM34,20H35V21H34zM36,20H37V21H36zM38,20H39V21H38zM2,21H3V22H2zM4,21H5V22H4zM5,21H6V22H5zM6,21H7V22H6zM7,21H8V22H7zM15,21H16V22H15zM17,21H18V22H17zM18,21H19V22H18zM22,21H23V22H22zM24,21H25V22H24zM25,21H26V22H25zM26,21H27V22H26zM30,21H31V22H30zM31,21H32V22H31zM32,21H33V22H32zM33,21H34V22H33zM35,21H36V22H35zM38,21H39V22H38zM4,22H5V23H4zM5,22H6V23H5zM8,22H9V23H8zM11,22H12V23H11zM14,22H15V23H14zM18,22H19V23H18zM19,22H20V23H19zM20,22H21V23H20zM22,22H23V23H22zM24,22H25V23H24zM26,22H27V23H26zM27,22H28V23H27zM31,22H32V23H31zM32,22H33V23H32zM34,22H35V23H34zM36,22H37V23H36zM2,23H3V24H2zM10,23H11V24H10zM15,23H16V24H15zM17,23H18V24H17zM19,23H20V24H19zM20,23H21V24H20zM21,23H22V24H21zM24,23H25V24H24zM25,23H26V24H25zM28,23H29V24H28zM29,23H30V24H29zM34,23H35V24H34zM36,23H37V24H36zM37,23H38V24H37zM3,24H4V25H3zM4,24H5V25H4zM5,24H6V25H5zM8,24H9V25H8zM10,24H11V25H10zM16,24H17V25H16zM17,24H18V25H17zM19,24H20V25H19zM23,24H24V25H23zM24,24H25V25H24zM26,24H27V25H26zM28,24H29V25H28zM29,24H30V25H29zM30,24H31V25H30zM33,24H34V25H33zM34,24H35V25H34zM35,24H36V25H35zM37,24H38V25H37zM38,24H39V25H38zM4,25H5V26H4zM6,25H7V26H6zM10,25H11V26H10zM12,25H13V26H12zM13,25H14V26H13zM14,25H15V26H14zM16,25H17V26H16zM17,25H18V26H17zM18,25H19V26H18zM19,25H20V26H19zM20,25H21V26H20zM21,25H22V26H21zM22,25H23V26H22zM24,25H25V26H24zM33,25H34V26H33zM34,25H35V26H34zM35,25H36V26H35zM37,25H38V26H37zM38,25H39V26H38zM4,26H5V27H4zM5,26H6V27H5zM8,26H9V27H8zM9,26H10V27H9zM11,26H12V27H11zM14,26H15V27H14zM15,26H16V27H15zM16,26H17V27H16zM19,26H20V27H19zM25,26H26V27H25zM26,26H27V27H26zM29,26H30V27H29zM30,26H31V27H30zM32,26H33V27H32zM37,26H38V27H37zM2,27H3V28H2zM3,27H4V28H3zM5,27H6V28H5zM6,27H7V28H6zM7,27H8V28H7zM9,27H10V28H9zM11,27H12V28H11zM14,27H15V28H14zM15,27H16V28H15zM16,27H17V28H16zM19,27H20V28H19zM20,27H21V28H20zM21,27H22V28H21zM22,27H23V28H22zM23,27H24V28H23zM24,27H25V28H24zM25,27H26V28H25zM27,27H28V28H27zM28,27H29V28H28zM29,27H30V28H29zM33,27H34V28H33zM2,28H3V29H2zM4,28H5V29H4zM5,28H6V29H5zM6,28H7V29H6zM7,28H8V29H7zM8,28H9V29H8zM9,28H10V29H9zM11,28H12V29H11zM12,28H13V29H12zM13,28H14V29H13zM14,28H15V29H14zM15,28H16V29H15zM17,28H18V29H17zM18,28H19V29H18zM24,28H25V29H24zM27,28H28V29H27zM28,28H29V29H28zM29,28H30V29H29zM31,28H32V29H31zM36,28H37V29H36zM37,28H38V29H37zM38,28H39V29H38zM2,29H3V30H2zM7,29H8V30H7zM9,29H10V30H9zM10,29H11V30H10zM12,29H13V30H12zM13,29H14V30H13zM14,29H15V30H14zM18,29H19V30H18zM22,29H23V30H22zM25,29H26V30H25zM28,29H29V30H28zM29,29H30V30H29zM33,29H34V30H33zM34,29H35V30H34zM36,29H37V30H36zM38,29H39V30H38zM2,30H3V31H2zM4,30H5V31H4zM5,30H6V31H5zM6,30H7V31H6zM8,30H9V31H8zM9,30H10V31H9zM10,30H11V31H10zM11,30H12V31H11zM13,30H14V31H13zM14,30H15V31H14zM15,30H16V31H15zM16,30H17V31H16zM17,30H18V31H17zM19,30H20V31H19zM21,30H22V31H21zM27,30H28V31H27zM28,30H29V31H28zM30,30H31V31H30zM31,30H32V31H31zM32,30H33V31H32zM33,30H34V31H33zM34,30H35V31H34zM35,30H36V31H35zM36,30H37V31H36zM37,30H38V31H37zM10,31H11V32H10zM11,31H12V32H11zM12,31H13V32H12zM13,31H14V32H13zM14,31H15V32H14zM15,31H16V32H15zM16,31H17V32H16zM17,31H18V32H17zM18,31H19V32H18zM20,31H21V32H20zM21,31H22V32H21zM22,31H23V32H22zM25,31H26V32H25zM30,31H31V32H30zM34,31H35V32H34zM2,32H3V33H2zM3,32H4V33H3zM4,32H5V33H4zM5,32H6V33H5zM6,32H7V33H6zM7,32H8V33H7zM8,32H9V33H8zM11,32H12V33H11zM13,32H14V33H13zM14,32H15V33H14zM16,32H17V33H16zM17,32H18V33H17zM19,32H20V33H19zM20,32H21V33H20zM21,32H22V33H21zM22,32H23V33H22zM24,32H25V33H24zM25,32H26V33H25zM28,32H29V33H28zM30,32H31V33H30zM32,32H33V33H32zM34,32H35V33H34zM38,32H39V33H38zM2,33H3V34H2zM8,33H9V34H8zM11,33H12V34H11zM16,33H17V34H16zM18,33H19V34H18zM22,33H23V34H22zM24,33H25V34H24zM26,33H27V34H26zM29,33H30V34H29zM30,33H31V34H30zM34,33H35V34H34zM37,33H38V34H37zM2,34H3V35H2zM4,34H5V35H4zM5,34H6V35H5zM6,34H7V35H6zM8,34H9V35H8zM12,34H13V35H12zM17,34H18V35H17zM20,34H21V35H20zM21,34H22V35H21zM25,34H26V35H25zM27,34H28V35H27zM28,34H29V35H28zM29,34H30V35H29zM30,34H31V35H30zM31,34H32V35H31zM32,34H33V35H32zM33,34H34V35H33zM34,34H35V35H34zM36,34H37V35H36zM37,34H38V35H37zM2,35H3V36H2zM4,35H5V36H4zM5,35H6V36H5zM6,35H7V36H6zM8,35H9V36H8zM11,35H12V36H11zM13,35H14V36H13zM14,35H15V36H14zM15,35H16V36H15zM16,35H17V36H16zM19,35H20V36H19zM21,35H22V36H21zM23,35H24V36H23zM24,35H25V36H24zM25,35H26V36H25zM28,35H29V36H28zM29,35H30V36H29zM30,35H31V36H30zM31,35H32V36H31zM32,35H33V36H32zM35,35H36V36H35zM38,35H39V36H38zM2,36H3V37H2zM4,36H5V37H4zM5,36H6V37H5zM6,36H7V37H6zM8,36H9V37H8zM14,36H15V37H14zM15,36H16V37H15zM16,36H17V37H16zM24,36H25V37H24zM27,36H28V37H27zM28,36H29V37H28zM29,36H30V37H29zM30,36H31V37H30zM31,36H32V37H31zM36,36H37V37H36zM37,36H38V37H37zM38,36H39V37H38zM2,37H3V38H2zM8,37H9V38H8zM13,37H14V38H13zM14,37H15V38H14zM15,37H16V38H15zM16,37H17V38H16zM17,37H18V38H17zM18,37H19V38H18zM21,37H22V38H21zM22,37H23V38H22zM24,37H25V38H24zM26,37H27V38H26zM28,37H29V38H28zM30,37H31V38H30zM31,37H32V38H31zM34,37H35V38H34zM35,37H36V38H35zM38,37H39V38H38zM2,38H3V39H2zM3,38H4V39H3zM4,38H5V39H4zM5,38H6V39H5zM6,38H7V39H6zM7,38H8V39H7zM8,38H9V39H8zM10,38H11V39H10zM11,38H12V39H11zM16,38H17V39H16zM18,38H19V39H18zM22,38H23V39H22zM25,38H26V39H25zM26,38H27V39H26zM30,38H31V39H30zM33,38H34V39H33zM35,38H36V39H35zM38,38H39V39H38z" id="qr-path" fill="#000000" fill-opacity="1" fill-rule="nonzero" stroke="none"/></svg>