<?xml version='1.0' encoding='UTF-8'?>
<svg width="41mm" height="41mm" version="1.1" viewBox="0 0 41 41" xmlns="http://www.w3.org/2000/svg"><path d="M2,2H3V3H2zM3,2H4V3H3zM4,2H5V3H4zM5,2H6V3H5zM6,2H7V3H6zM7,2H8V3H7zM8,2H9V3H8zM10,2H11V3H10zM12,2H13V3H12zM16,2H17V3H16zM17,2H18V3H17zM20,2H21V3H20zM23,2H24V3H23zM24,2H25V3H24zM27,2H28V3H27zM28,2H29V3H28zM32,2H33V3H32zM33,2H34V3H33zM34,2H35V3H34zM35,2H36V3H35zM36,2H37V3H36zM37,2H38V3H37zM38,2H39V3H38zM2,3H3V4H2zM8,3H9V4H8zM11,3H12V4H11zM12,3H13V4H12zM15,3H16V4H15zM17,3H18V4H17zM19,3H20V4H19zM20,3H21V4H20zM22,3H23V4H22zM24,3H25V4H24zM26,3H27V4H26zM28,3H29V4H28zM30,3H31V4H30zM32,3H33V4H32zM38,3H39V4H38zM2,4H3V5H2zM4,4H5V5H4zM5,4H6V5H5zM6,4H7V5H6zM8,4H9V5H8zM10,4H11V5H10zM11,4H12V5H11zM13,4H14V5H13zM14,4H15V5H14zM16,4H17V5H16zM17,4H18V5H17zM19,4H20V5H19zM20,4H21V5H20zM21,4H22V5H21zM23,4H24V5H23zM24,4H25V5H24zM27,4H28V5H27zM30,4H31V5H30zM32,4H33V5H32zM34,4H35V5H34zM35,4H36V5H35zM36,4H37V5H36zM38,4H39V5H38zM2,5H3V6H2zM4,5H5V6H4zM5,5H6V6H5zM6,5H7V6H6zM8,5H9V6H8zM11,5H12V6H11zM12,5H13V6H12zM13,5H14V6H13zM15,5H16V6H15zM16,5H17V6H16zM18,5H19V6H18zM19,5H20V6H19zM20,5H21V6H20zM21,5H22V6H21zM23,5H24V6H23zM24,5H25V6H24zM25,5H26V6H25zM26,5H27V6H26zM28,5H29V6H28zM32,5H33V6H32zM34,5H35V6H34zM35,5H36V6H35zM36,5H37V6H36zM38,5H39V6H38zM2,6H3V7H2zM4,6H5V7H4zM5,6H6V7H5zM6,6H7V7H6zM8,6H9V7H8zM13,6H14V7H13zM15,6H16V7H15zM18,6H19V7H18zM24,6H25V7H24zM27,6H28V7H27zM29,6H30V7H29zM32,6H33V7H32zM34,6H35V7H34zM35,6H36V7H35zM36,6H37V7H36zM38,6H39V7H38zM2,7H3V8H2zM8,7H9V8H8zM10,7H11V8H10zM13,7H14V8H13zM15,7H16V8H15zM17,7H18V8H17zM18,7H19V8H18zM20,7H21V8H20zM23,7H24V8H23zM24,7H25V8H24zM26,7H27V8H26zM30,7H31V8H30zM32,7H33V8H32zM38,7H39V8H38zM2,8H3V9H2zM3,8H4V9H3zM4,8H5V9H4zM5,8H6V9H5zM6,8H7V9H6zM7,8H8V9H7zM8,8H9V9H8zM10,8H11V9H10zM12,8H13V9H12zM14,8H15V9H14zM16,8H17V9H16zM18,8H19V9H18zM20,8H21V9H20zM22,8H23V9H22zM24,8H25V9H24zM26,8H27V9H26zM28,8H29V9H28zM30,8H31V9H30zM32,8H33V9H32zM33,8H34V9H33zM34,8H35V9H34zM35,8H36V9H35zM36,8H37V9H36zM37,8H38V9H37zM38,8H39V9H38zM12,9H13V10H12zM13,9H14V10H13zM16,9H17V10H16zM22,9H23V10H22zM24,9H25V10H24zM28,9H29V10H28zM29,9H30V10H29zM2,10H3V11H2zM4,10H5V11H4zM8,10H9V11H8zM9,10H10V11H9zM13,10H14V11H13zM14,10H15V11H14zM16,10H17V11H16zM18,10H19V11H18zM19,10H20V11H19zM20,10H21V11H20zM22,10H23V11H22zM26,10H27V11H26zM29,10H30V11H29zM30,10H31V11H30zM33,10H34V11H33zM36,10H37V11H36zM38,10H39V11H38zM5,11H6V12H5zM12,11H13V12H12zM13,11H14V12H13zM14,11H15V12H14zM18,11H19V12H18zM19,11H20V12H19zM21,11H22V12H21zM22,11H23V12H22zM23,11H24V12H23zM25,11H26V12H25zM26,11H27V12H26zM28,11H29V12H28zM29,11H30V12H29zM30,11H31V12H30zM31,11H32V12H31zM32,11H33V12H32zM33,11H34V12H33zM35,11H36V12H35zM36,11H37V12H36zM37,11H38V12H37zM38,11H39V12H38zM2,12H3V13H2zM3,12H4V13H3zM4,12H5V13H4zM5,12H6V13H5zM6,12H7V13H6zM7,12H8V13H7zM8,12H9V13H8zM14,12H15V13H14zM15,12H16V13H15zM18,12H19V13H18zM19,12H20V13H19zM20,12H21V13H20zM21,12H22V13H21zM22,12H23V13H22zM23,12H24V13H23zM24,12H25V13H24zM25,12H26V13H25zM28,12H29V13H28zM29,12H30V13H29zM31,12H32V13H31zM33,12H34V13H33zM34,12H35V13H34zM36,12H37V13H36zM38,12H39V13H38zM2,13H3V14H2zM6,13H7V14H6zM7,13H8V14H7zM10,13H11V14H10zM12,13H13V14H12zM13,13H14V14H13zM17,13H18V14H17zM18,13H19V14H18zM20,13H21V14H20zM22,13H23V14H22zM25,13H26V14H25zM30,13H31V14H30zM31,13H32V14H31zM34,13H35V14H34zM35,13H36V14H35zM2,14H3V15H2zM4,14H5V15H4zM5,14H6V15H5zM8,14H9V15H8zM9,14H10V15H9zM10,14H11V15H10zM11,14H12V15H11zM12,14H13V15H12zM13,14H14V15H13zM15,14H16V15H15zM18,14H19V15H18zM20,14H21V15H20zM21,14H22V15H21zM22,14H23V15H22zM25,14H26V15H25zM26,14H27V15H26zM27,14H28V15H27zM32,14H33V15H32zM34,14H35V15H34zM38,14H39V15H38zM3,15H4V16H3zM4,15H5V16H4zM5,15H6V16H5zM9,15H10V16H9zM10,15H11V16H10zM17,15H18V16H17zM18,15H19V16H18zM19,15H20V16H19zM21,15H22V16H21zM22,15H23V16H22zM23,15H24V16H23zM24,15H25V16H24zM25,15H26V16H25zM26,15H27V16H26zM30,15H31V16H30zM33,15H34V16H33zM35,15H36V16H35zM38,15H39V16H38zM4,16H5V17H4zM8,16H9V17H8zM9,16H10V17H9zM12,16H13V17H12zM14,16H15V17H14zM15,16H16V17H15zM17,16H18V17H17zM21,16H22V17H21zM24,16H25V17H24zM25,16H26V17H25zM28,16H29V17H28zM29,16H30V17H29zM32,16H33V17H32zM35,16H36V17H35zM36,16H37V17H36zM38,16H39V17H38zM5,17H6V18H5zM9,17H10V18H9zM10,17H11V18H10zM11,17H12V18H11zM12,17H13V18H12zM15,17H16V18H15zM17,17H18V18H17zM18,17H19V18H18zM19,17H20V18H19zM21,17H22V18H21zM22,17H23V18H22zM24,17H25V18H24zM25,17H26V18H25zM26,17H27V18H26zM30,17H31V18H30zM31,17H32V18H31zM33,17H34V18H33zM34,17H35V18H34zM35,17H36V18H35zM37,17H38V18H37zM6,18H7V19H6zM8,18H9V19H8zM9,18H10V19H9zM19,18H20V19H19zM25,18H26V19H25zM26,18H27V19H26zM29,18H30V19H29zM30,18H31V19H30zM32,18H33V19H32zM33,18H34V19H33zM38,18H39V19H38zM2,19H3V20H2zM4,19H5V20H4zM5,19H6V20H5zM6,19H7V20H6zM9,19H10V20H9zM13,19H14V20H13zM16,19H17V20H16zM19,19H20V20H19zM21,19H22V20H21zM22,19H23V20H22zM25,19H26V20H25zM26,19H27V20H26zM27,19H28V20H27zM29,19H30V20H29zM32,19H33V20H32zM33,19H34V20H33zM37,19H38V20H37zM38,19H39V20H38zM2,20H3V21H2zM5,20H6V21H5zM7,20H8V21H7zM8,20H9V21H8zM9,20H10V21H9zM10,20H11V21H10zM11,20H12V21H11zM13,20H14V21H13zM14,20H15V21H14zM17,20H18V21H17zM19,20H20V21H19zM21,20H22V21H21zM22,20H23V21H22zM23,20H24V21H23zM25,20H26V21H25zM29,20H30V21H29zM38,20H39V21H38zM3,21H4V22H3zM5,21H6V22H5zM6,21H7V22H6zM12,21H13V22H12zM14,21H15V22H14zM20,21H21V22H20zM24,21H25V22H24zM26,21H27V22H26zM29,21H30V22H29zM30,21H31V22H30zM31,21H32V22H31zM32,21H33V22H32zM2,22H3V23H2zM3,22H4V23H3zM5,22H6V23H5zM6,22H7V23H6zM8,22H9V23H8zM9,22H10V23H9zM13,22H14V23H13zM15,22H16V23H15zM17,22H18V23H17zM18,22H19V23H18zM22,22H23V23H22zM26,22H27V23H26zM27,22H28V23H27zM29,22H30V23H29zM32,22H33V23H32zM33,22H34V23H33zM35,22H36V23H35zM37,22H38V23H37zM3,23H4V24H3zM4,23H5V24H4zM7,23H8V24H7zM11,23H12V24H11zM13,23H14V24H13zM14,23H15V24H14zM15,23H16V24H15zM17,23H18V24H17zM21,23H22V24H21zM23,23H24V24H23zM25,23H26V24H25zM26,23H27V24H26zM30,23H31V24H30zM31,23H32V24H31zM38,23H39V24H38zM2,24H3V25H2zM3,24H4V25H3zM5,24H6V25H5zM8,24H9V25H8zM10,24H11V25H10zM11,24H12V25H11zM13,24H14V25H13zM16,24H17V25H16zM17,24H18V25H17zM19,24H20V25H19zM20,24H21V25H20zM21,24H22V25H21zM23,24H24V25H23zM24,24H25V25H24zM25,24H26V25H25zM26,24H27V25H26zM27,24H28V25H27zM28,24H29V25H28zM29,24H30V25H29zM31,24H32V25H31zM35,24H36V25H35zM36,24H37V25H36zM38,24H39V25H38zM6,25H7V26H6zM7,25H8V26H7zM10,25H11V26H10zM15,25H16V26H15zM16,25H17V26H16zM18,25H19V26H18zM20,25H21V26H20zM21,25H22V26H21zM22,25H23V26H22zM24,25H25V26H24zM25,25H26V26H25zM26,25H27V26H26zM28,25H29V26H28zM30,25H31V26H30zM32,25H33V26H32zM33,25H34V26H33zM34,25H35V26H34zM35,25H36V26H35zM7,26H8V27H7zM8,26H9V27H8zM12,26H13V27H12zM13,26H14V27H13zM15,26H16V27H15zM17,26H18V27H17zM18,26H19V27H18zM19,26H20V27H19zM20,26H21V27H20zM22,26H23V27H22zM26,26H27V27H26zM30,26H31V27H30zM32,26H33V27H32zM33,26H34V27H33zM38,26H39V27H38zM3,27H4V28H3zM4,27H5V28H4zM5,27H6V28H5zM6,27H7V28H6zM9,27H10V28H9zM10,27H11V28H10zM12,27H13V28H12zM13,27H14V28H13zM15,27H16V28H15zM16,27H17V28H16zM18,27H19V28H18zM19,27H20V28H19zM20,27H21V28H20zM21,27H22V28H21zM22,27H23V28H22zM25,27H26V28H25zM29,27H30V28H29zM30,27H31V28H30zM32,27H33V28H32zM33,27H34V28H33zM35,27H36V28H35zM36,27H37V28H36zM38,27H39V28H38zM2,28H3V29H2zM3,28H4V29H3zM4,28H5V29H4zM5,28H6V29H5zM6,28H7V29H6zM7,28H8V29H7zM8,28H9V29H8zM10,28H11V29H10zM12,28H13V29H12zM14,28H15V29H14zM18,28H19V29H18zM19,28H20V29H19zM21,28H22V29H21zM22,28H23V29H22zM24,28H25V29H24zM25,28H26V29H25zM26,28H27V29H26zM27,28H28V29H27zM28,28H29V29H28zM29,28H30V29H29zM30,28H31V29H30zM32,28H33V29H32zM38,28H39V29H38zM5,29H6V30H5zM6,29H7V30H6zM14,29H15V30H14zM16,29H17V30H16zM17,29H18V30H17zM18,29H19V30H18zM20,29H21V30H20zM21,29H22V30H21zM22,29H23V30H22zM26,29H27V30H26zM28,29H29V30H28zM29,29H30V30H29zM30,29H31V30H30zM31,29H32V30H31zM33,29H34V30H33zM34,29H35V30H34zM35,29H36V30H35zM37,29H38V30H37zM2,30H3V31H2zM3,30H4V31H3zM4,30H5V31H4zM5,30H6V31H5zM6,30H7V31H6zM7,30H8V31H7zM8,30H9V31H8zM11,30H12V31H11zM13,30H14V31H13zM14,30H15V31H14zM16,30H17V31H16zM22,30H23V31H22zM24,30H25V31H24zM26,30H27V31H26zM27,30H28V31H27zM30,30H31V31H30zM31,30H32V31H31zM32,30H33V31H32zM33,30H34V31H33zM34,30H35V31H34zM35,30H36V31H35zM10,31H11V32H10zM12,31H13V32H12zM13,31H14V32H13zM17,31H18V32H17zM18,31H19V32H18zM19,31H20V32H19zM21,31H22V32H21zM22,31H23V32H22zM25,31H26V32H25zM27,31H28V32H27zM30,31H31V32H30zM34,31H35V32H34zM37,31H38V32H37zM38,31H39V32H38zM2,32H3V33H2zM3,32H4V33H3zM4,32H5V33H4zM5,32H6V33H5zM6,32H7V33H6zM7,32H8V33H7zM8,32H9V33H8zM10,32H11V33H10zM12,32H13V33H12zM13,32H14V33H13zM17,32H18V33H17zM18,32H19V33H18zM21,32H22V33H21zM23,32H24V33H23zM25,32H26V33H25zM27,32H28V33H27zM30,32H31V33H30zM32,32H33V33H32zM34,32H35V33H34zM38,32H39V33H38zM2,33H3V34H2zM8,33H9V34H8zM11,33H12V34H11zM16,33H17V34H16zM17,33H18V34H17zM18,33H19V34H18zM19,33H20V34H19zM24,33H25V34H24zM26,33H27V34H26zM28,33H29V34H28zM30,33H31V34H30zM34,33H35V34H34zM37,33H38V34H37zM2,34H3V35H2zM4,34H5V35H4zM5,34H6V35H5zM6,34H7V35H6zM8,34H9V35H8zM11,34H12V35H11zM12,34H13V35H12zM14,34H15V35H14zM16,34H17V35H16zM19,34H20V35H19zM22,34H23V35H22zM25,34H26V35H25zM26,34H27V35H26zM29,34H30V35H29zM30,34H31V35H30zM31,34H32V35H31zM32,34H33V35H32zM33,34H34V35H33zM34,34H35V35H34zM37,34H38V35H37zM2,35H3V36H2zM4,35H5V36H4zM5,35H6V36H5zM6,35H7V36H6zM8,35H9V36H8zM11,35H12V36H11zM12,35H13V36H12zM14,35H15V36H14zM15,35H16V36H15zM16,35H17V36H16zM21,35H22V36H21zM23,35H24V36H23zM24,35H25V36H24zM25,35H26V36H25zM26,35H27V36H26zM27,35H28V36H27zM30,35H31V36H30zM31,35H32V36H31zM34,35H35V36H34zM35,35H36V36H35zM2,36H3V37H2zM4,36H5V37H4zM5,36H6V37H5zM6,36H7V37H6zM8,36H9V37H8zM10,36H11V37H10zM11,36H12V37H11zM12,36H13V37H12zM14,36H15V37H14zM17,36H18V37H17zM19,36H20V37H19zM21,36H22V37H21zM25,36H26V37H25zM27,36H28V37H27zM29,36H30V37H29zM30,36H31V37H30zM32,36H33V37H32zM33,36H34V37H33zM34,36H35V37H34zM38,36H39V37H38zM2,37H3V38H2zM8,37H9V38H8zM11,37H12V38H11zM12,37H13V38H12zM13,37H14V38H13zM14,37H15V38H14zM15,37H16V38H15zM20,37H21V38H20zM21,37H22V38H21zM26,37H27V38H26zM28,37H29V38H28zM30,37H31V38H30zM34,37H35V38H34zM35,37H36V38H35zM2,38H3V39H2zM3,38H4V39H3zM4,38H5V39H4zM5,38H6V39H5zM6,38H7V39H6zM7,38H8V39H7zM8,38H9V39H8zM10,38H11V39H10zM12,38H13V39H12zM14,38H15V39H14zM15,38H16V39H15zM17,38H18V39H17zM18,38H19V39H18zM21,38H22V39H21zM22,38H23V39H22zM25,38H26V39H25zM26,38H27V39H26zM27,38H28V39H27zM30,38H31V39H30zM32,38H33V39H32zM33,38H34V39H33zM35,38H36V39H35zM38,38H39V39H38z" id="qr-path" fill="#000000" fill-opacity="1" fill-rule="nonzero" stroke="none"/></svg>