<?xml version='1.0' encoding='UTF-8'?>
<svg width="41mm" height="41mm" version="1.1" viewBox="0 0 41 41" xmlns="http://www.w3.org/2000/svg"><path d="M2,2H3V3H2zM3,2H4V3H3zM4,2H5V3H4zM5,2H6V3H5zM6,2H7V3H6zM7,2H8V3H7zM8,2H9V3H8zM10,2H11V3H10zM11,2H12V3H11zM13,2H14V3H13zM14,2H15V3H14zM17,2H18V3H17zM18,2H19V3H18zM19,2H20V3H19zM20,2H21V3H20zM23,2H24V3H23zM24,2H25V3H24zM25,2H26V3H25zM30,2H31V3H30zM32,2H33V3H32zM33,2H34V3H33zM34,2H35V3H34zM35,2H36V3H35zM36,2H37V3H36zM37,2H38V3H37zM38,2H39V3H38zM2,3H3V4H2zM8,3H9V4H8zM10,3H11V4H10zM11,3H12V4H11zM12,3H13V4H12zM13,3H14V4H13zM19,3H20V4H19zM20,3H21V4H20zM22,3H23V4H22zM23,3H24V4H23zM25,3H26V4H25zM28,3H29V4H28zM30,3H31V4H30zM32,3H33V4H32zM38,3H39V4H38zM2,4H3V5H2zM4,4H5V5H4zM5,4H6V5H5zM6,4H7V5H6zM8,4H9V5H8zM11,4H12V5H11zM14,4H15V5H14zM15,4H16V5H15zM16,4H17V5H16zM17,4H18V5H17zM21,4H22V5H21zM22,4H23V5H22zM24,4H25V5H24zM27,4H28V5H27zM32,4H33V5H32zM34,4H35V5H34zM35,4H36V5H35zM36,4H37V5H36zM38,4H39V5H38zM2,5H3V6H2zM4,5H5V6H4zM5,5H6V6H5zM6,5H7V6H6zM8,5H9V6H8zM10,5H11V6H10zM12,5H13V6H12zM13,5H14V6H13zM14,5H15V6H14zM16,5H17V6H16zM19,5H20V6H19zM21,5H22V6H21zM26,5H27V6H26zM27,5H28V6H27zM28,5H29V6H28zM29,5H30V6H29zM30,5H31V6H30zM32,5H33V6H32zM34,5H35V6H34zM35,5H36V6H35zM36,5H37V6H36zM38,5H39V6H38zM2,6H3V7H2zM4,6H5V7H4zM5,6H6V7H5zM6,6H7V7H6zM8,6H9V7H8zM12,6H13V7H12zM13,6H14V7H13zM14,6H15V7H14zM15,6H16V7H15zM16,6H17V7H16zM21,6H22V7H21zM26,6H27V7H26zM28,6H29V7H28zM29,6H30V7H29zM30,6H31V7H30zM32,6H33V7H32zM34,6H35V7H34zM35,6H36V7H35zM36,6H37V7H36zM38,6H39V7H38zM2,7H3V8H2zM8,7H9V8H8zM11,7H12V8H11zM17,7H18V8H17zM18,7H19V8H18zM19,7H20V8H19zM20,7H21V8H20zM21,7H22V8H21zM22,7H23V8H22zM26,7H27V8H26zM27,7H28V8H27zM32,7H33V8H32zM38,7H39V8H38zM2,8H3V9H2zM3,8H4V9H3zM4,8H5V9H4zM5,8H6V9H5zM6,8H7V9H6zM7,8H8V9H7zM8,8H9V9H8zM10,8H11V9H10zM12,8H13V9H12zM14,8H15V9H14zM16,8H17V9H16zM18,8H19V9H18zM20,8H21V9H20zM22,8H23V9H22zM24,8H25V9H24zM26,8H27V9H26zM28,8H29V9H28zM30,8H31V9H30zM32,8H33V9H32zM33,8H34V9H33zM34,8H35V9H34zM35,8H36V9H35zM36,8H37V9H36zM37,8H38V9H37zM38,8H39V9H38zM10,9H11V10H10zM12,9H13V10H12zM14,9H15V10H14zM15,9H16V10H15zM16,9H17V10H16zM17,9H18V10H17zM18,9H19V10H18zM21,9H22V10H21zM24,9H25V10H24zM25,9H26V10H25zM26,9H27V10H26zM29,9H30V10H29zM30,9H31V10H30zM2,10H3V11H2zM4,10H5V11H4zM5,10H6V11H5zM7,10H8V11H7zM8,10H9V11H8zM9,10H10V11H9zM11,10H12V11H11zM13,10H14V11H13zM17,10H18V11H17zM20,10H21V11H20zM23,10H24V11H23zM26,10H27V11H26zM30,10H31V11H30zM32,10H33V11H32zM35,10H36V11H35zM37,10H38V11H37zM38,10H39V11H38zM2,11H3V12H2zM3,11H4V12H3zM4,11H5V12H4zM5,11H6V12H5zM13,11H14V12H13zM14,11H15V12H14zM15,11H16V12H15zM16,11H17V12H16zM17,11H18V12H17zM19,11H20V12H19zM20,11H21V12H20zM21,11H22V12H21zM22,11H23V12H22zM25,11H26V12H25zM27,11H28V12H27zM30,11H31V12H30zM33,11H34V12H33zM37,11H38V12H37zM4,12H5V13H4zM5,12H6V13H5zM7,12H8V13H7zM8,12H9V13H8zM10,12H11V13H10zM11,12H12V13H11zM12,12H13V13H12zM15,12H16V13H15zM16,12H17V13H16zM18,12H19V13H18zM20,12H21V13H20zM23,12H24V13H23zM24,12H25V13H24zM25,12H26V13H25zM26,12H27V13H26zM28,12H29V13H28zM31,12H32V13H31zM32,12H33V13H32zM33,12H34V13H33zM34,12H35V13H34zM35,12H36V13H35zM4,13H5V14H4zM6,13H7V14H6zM9,13H10V14H9zM13,13H14V14H13zM14,13H15V14H14zM15,13H16V14H15zM18,13H19V14H18zM21,13H22V14H21zM22,13H23V14H22zM24,13H25V14H24zM26,13H27V14H26zM27,13H28V14H27zM32,13H33V14H32zM34,13H35V14H34zM35,13H36V14H35zM36,13H37V14H36zM2,14H3V15H2zM3,14H4V15H3zM4,14H5V15H4zM5,14H6V15H5zM6,14H7V15H6zM8,14H9V15H8zM15,14H16V15H15zM17,14H18V15H17zM19,14H20V15H19zM21,14H22V15H21zM24,14H25V15H24zM25,14H26V15H25zM27,14H28V15H27zM28,14H29V15H28zM29,14H30V15H29zM31,14H32V15H31zM32,14H33V15H32zM34,14H35V15H34zM35,14H36V15H35zM36,14H37V15H36zM37,14H38V15H37zM38,14H39V15H38zM6,15H7V16H6zM7,15H8V16H7zM10,15H11V16H10zM11,15H12V16H11zM14,15H15V16H14zM16,15H17V16H16zM17,15H18V16H17zM19,15H20V16H19zM20,15H21V16H20zM21,15H22V16H21zM22,15H23V16H22zM26,15H27V16H26zM27,15H28V16H27zM28,15H29V16H28zM29,15H30V16H29zM30,15H31V16H30zM31,15H32V16H31zM32,15H33V16H32zM33,15H34V16H33zM34,15H35V16H34zM35,15H36V16H35zM37,15H38V16H37zM38,15H39V16H38zM2,16H3V17H2zM3,16H4V17H3zM4,16H5V17H4zM5,16H6V17H5zM8,16H9V17H8zM11,16H12V17H11zM13,16H14V17H13zM14,16H15V17H14zM21,16H22V17H21zM22,16H23V17H22zM23,16H24V17H23zM27,16H28V17H27zM28,16H29V17H28zM30,16H31V17H30zM31,16H32V17H31zM32,16H33V17H32zM34,16H35V17H34zM36,16H37V17H36zM37,16H38V17H37zM2,17H3V18H2zM9,17H10V18H9zM10,17H11V18H10zM11,17H12V18H11zM12,17H13V18H12zM14,17H15V18H14zM16,17H17V18H16zM17,17H18V18H17zM18,17H19V18H18zM23,17H24V18H23zM26,17H27V18H26zM28,17H29V18H28zM30,17H31V18H30zM31,17H32V18H31zM32,17H33V18H32zM33,17H34V18H33zM34,17H35V18H34zM38,17H39V18H38zM2,18H3V19H2zM4,18H5V19H4zM5,18H6V19H5zM7,18H8V19H7zM8,18H9V19H8zM10,18H11V19H10zM11,18H12V19H11zM12,18H13V19H12zM13,18H14V19H13zM14,18H15V19H14zM15,18H16V19H15zM19,18H20V19H19zM21,18H22V19H21zM22,18H23V19H22zM23,18H24V19H23zM24,18H25V19H24zM27,18H28V19H27zM29,18H30V19H29zM30,18H31V19H30zM35,18H36V19H35zM36,18H37V19H36zM2,19H3V20H2zM3,19H4V20H3zM5,19H6V20H5zM6,19H7V20H6zM9,19H10V20H9zM10,19H11V20H10zM13,19H14V20H13zM15,19H16V20H15zM16,19H17V20H16zM19,19H20V20H19zM20,19H21V20H20zM22,19H23V20H22zM23,19H24V20H23zM24,19H25V20H24zM25,19H26V20H25zM27,19H28V20H27zM29,19H30V20H29zM32,19H33V20H32zM33,19H34V20H33zM35,19H36V20H35zM37,19H38V20H37zM38,19H39V20H38zM3,20H4V21H3zM4,20H5V21H4zM7,20H8V21H7zM8,20H9V21H8zM9,20H10V21H9zM10,20H11V21H10zM11,20H12V21H11zM15,20H16V21H15zM20,20H21V21H20zM23,20H24V21H23zM28,20H29V21H28zM29,20H30V21H29zM30,20H31V21H30zM31,20H32V21H31zM32,20H33V21H32zM33,20H34V21H33zM34,20H35V21H34zM37,20H38V21H37zM38,20H39V21H38zM6,21H7V22H6zM9,21H10V22H9zM13,21H14V22H13zM15,21H16V22H15zM16,21H17V22H16zM17,21H18V22H17zM18,21H19V22H18zM19,21H20V22H19zM20,21H21V22H20zM24,21H25V22H24zM25,21H26V22H25zM26,21H27V22H26zM28,21H29V22H28zM30,21H31V22H30zM35,21H36V22H35zM37,21H38V22H37zM2,22H3V23H2zM3,22H4V23H3zM6,22H7V23H6zM8,22H9V23H8zM12,22H13V23H12zM13,22H14V23H13zM15,22H16V23H15zM17,22H18V23H17zM19,22H20V23H19zM21,22H22V23H21zM22,22H23V23H22zM23,22H24V23H23zM25,22H26V23H25zM29,22H30V23H29zM30,22H31V23H30zM31,22H32V23H31zM33,22H34V23H33zM34,22H35V23H34zM35,22H36V23H35zM38,22H39V23H38zM2,23H3V24H2zM4,23H5V24H4zM5,23H6V24H5zM6,23H7V24H6zM12,23H13V24H12zM15,23H16V24H15zM16,23H17V24H16zM18,23H19V24H18zM19,23H20V24H19zM20,23H21V24H20zM21,23H22V24H21zM22,23H23V24H22zM23,23H24V24H23zM25,23H26V24H25zM30,23H31V24H30zM35,23H36V24H35zM37,23H38V24H37zM3,24H4V25H3zM8,24H9V25H8zM12,24H13V25H12zM13,24H14V25H13zM14,24H15V25H14zM15,24H16V25H15zM16,24H17V25H16zM20,24H21V25H20zM22,24H23V25H22zM23,24H24V25H23zM24,24H25V25H24zM25,24H26V25H25zM27,24H28V25H27zM28,24H29V25H28zM30,24H31V25H30zM31,24H32V25H31zM32,24H33V25H32zM33,24H34V25H33zM2,25H3V26H2zM4,25H5V26H4zM6,25H7V26H6zM7,25H8V26H7zM9,25H10V26H9zM10,25H11V26H10zM11,25H12V26H11zM13,25H14V26H13zM15,25H16V26H15zM17,25H18V26H17zM19,25H20V26H19zM22,25H23V26H22zM24,25H25V26H24zM26,25H27V26H26zM27,25H28V26H27zM28,25H29V26H28zM30,25H31V26H30zM31,25H32V26H31zM34,25H35V26H34zM35,25H36V26H35zM36,25H37V26H36zM37,25H38V26H37zM2,26H3V27H2zM3,26H4V27H3zM7,26H8V27H7zM8,26H9V27H8zM10,26H11V27H10zM12,26H13V27H12zM13,26H14V27H13zM15,26H16V27H15zM16,26H17V27H16zM18,26H19V27H18zM21,26H22V27H21zM22,26H23V27H22zM24,26H25V27H24zM26,26H27V27H26zM27,26H28V27H27zM28,26H29V27H28zM29,26H30V27H29zM31,26H32V27H31zM32,26H33V27H32zM34,26H35V27H34zM36,26H37V27H36zM3,27H4V28H3zM4,27H5V28H4zM6,27H7V28H6zM10,27H11V28H10zM11,27H12V28H11zM12,27H13V28H12zM14,27H15V28H14zM15,27H16V28H15zM21,27H22V28H21zM23,27H24V28H23zM24,27H25V28H24zM26,27H27V28H26zM27,27H28V28H27zM29,27H30V28H29zM31,27H32V28H31zM32,27H33V28H32zM33,27H34V28H33zM34,27H35V28H34zM37,27H38V28H37zM38,27H39V28H38zM3,28H4V29H3zM4,28H5V29H4zM5,28H6V29H5zM7,28H8V29H7zM8,28H9V29H8zM10,28H11V29H10zM20,28H21V29H20zM21,28H22V29H21zM23,28H24V29H23zM26,28H27V29H26zM28,28H29V29H28zM31,28H32V29H31zM32,28H33V29H32zM33,28H34V29H33zM35,28H36V29H35zM37,28H38V29H37zM2,29H3V30H2zM4,29H5V30H4zM6,29H7V30H6zM7,29H8V30H7zM9,29H10V30H9zM11,29H12V30H11zM13,29H14V30H13zM16,29H17V30H16zM17,29H18V30H17zM23,29H24V30H23zM24,29H25V30H24zM26,29H27V30H26zM34,29H35V30H34zM35,29H36V30H35zM38,29H39V30H38zM4,30H5V31H4zM6,30H7V31H6zM7,30H8V31H7zM8,30H9V31H8zM9,30H10V31H9zM13,30H14V31H13zM15,30H16V31H15zM20,30H21V31H20zM21,30H22V31H21zM22,30H23V31H22zM23,30H24V31H23zM25,30H26V31H25zM26,30H27V31H26zM27,30H28V31H27zM29,30H30V31H29zM30,30H31V31H30zM31,30H32V31H31zM32,30H33V31H32zM33,30H34V31H33zM34,30H35V31H34zM36,30H37V31H36zM38,30H39V31H38zM10,31H11V32H10zM13,31H14V32H13zM15,31H16V32H15zM16,31H17V32H16zM17,31H18V32H17zM22,31H23V32H22zM24,31H25V32H24zM25,31H26V32H25zM26,31H27V32H26zM27,31H28V32H27zM30,31H31V32H30zM34,31H35V32H34zM36,31H37V32H36zM38,31H39V32H38zM2,32H3V33H2zM3,32H4V33H3zM4,32H5V33H4zM5,32H6V33H5zM6,32H7V33H6zM7,32H8V33H7zM8,32H9V33H8zM10,32H11V33H10zM12,32H13V33H12zM14,32H15V33H14zM17,32H18V33H17zM18,32H19V33H18zM20,32H21V33H20zM27,32H28V33H27zM30,32H31V33H30zM32,32H33V33H32zM34,32H35V33H34zM36,32H37V33H36zM37,32H38V33H37zM38,32H39V33H38zM2,33H3V34H2zM8,33H9V34H8zM10,33H11V34H10zM11,33H12V34H11zM13,33H14V34H13zM14,33H15V34H14zM18,33H19V34H18zM19,33H20V34H19zM20,33H21V34H20zM24,33H25V34H24zM25,33H26V34H25zM28,33H29V34H28zM29,33H30V34H29zM30,33H31V34H30zM34,33H35V34H34zM38,33H39V34H38zM2,34H3V35H2zM4,34H5V35H4zM5,34H6V35H5zM6,34H7V35H6zM8,34H9V35H8zM11,34H12V35H11zM15,34H16V35H15zM16,34H17V35H16zM18,34H19V35H18zM23,34H24V35H23zM24,34H25V35H24zM25,34H26V35H25zM28,34H29V35H28zM30,34H31V35H30zM31,34H32V35H31zM32,34H33V35H32zM33,34H34V35H33zM34,34H35V35H34zM35,34H36V35H35zM37,34H38V35H37zM38,34H39V35H38zM2,35H3V36H2zM4,35H5V36H4zM5,35H6V36H5zM6,35H7V36H6zM8,35H9V36H8zM10,35H11V36H10zM12,35H13V36H12zM13,35H14V36H13zM15,35H16V36H15zM17,35H18V36H17zM18,35H19V36H18zM19,35H20V36H19zM21,35H22V36H21zM22,35H23V36H22zM25,35H26V36H25zM31,35H32V36H31zM32,35H33V36H32zM34,35H35V36H34zM36,35H37V36H36zM38,35H39V36H38zM2,36H3V37H2zM4,36H5V37H4zM5,36H6V37H5zM6,36H7V37H6zM8,36H9V37H8zM10,36H11V37H10zM11,36H12V37H11zM15,36H16V37H15zM17,36H18V37H17zM19,36H20V37H19zM20,36H21V37H20zM22,36H23V37H22zM23,36H24V37H23zM24,36H25V37H24zM25,36H26V37H25zM26,36H27V37H26zM27,36H28V37H27zM30,36H31V37H30zM32,36H33V37H32zM34,36H35V37H34zM35,36H36V37H35zM36,36H37V37H36zM2,37H3V38H2zM8,37H9V38H8zM12,37H13V38H12zM13,37H14V38H13zM16,37H17V38H16zM17,37H18V38H17zM20,37H21V38H20zM22,37H23V38H22zM26,37H27V38H26zM27,37H28V38H27zM28,37H29V38H28zM31,37H32V38H31zM32,37H33V38H32zM33,37H34V38H33zM34,37H35V38H34zM35,37H36V38H35zM36,37H37V38H36zM2,38H3V39H2zM3,38H4V39H3zM4,38H5V39H4zM5,38H6V39H5zM6,38H7V39H6zM7,38H8V39H7zM8,38H9V39H8zM10,38H11V39H10zM11,38H12V39H11zM12,38H13V39H12zM13,38H14V39H13zM15,38H16V39H15zM19,38H20V39H19zM21,38H22V39H21zM24,38H25V39H24zM26,38H27V39H26zM27,38H28V39H27zM28,38H29V39H28zM32,38H33V39H32zM34,38H35V39H34zM35,38H36V39H35zM36,38H37V39H36zM37,38H38V39H37zM38,38H39V39H38z" id="qr-path" fill="#000000" fill-opacity="1" fill-rule="nonzero" stroke="none"/></svg>