<?xml version='1.0' encoding='UTF-8'?>
<svg width="41mm" height="41mm" version="1.1" viewBox="0 0 41 41" xmlns="http://www.w3.org/2000/svg"><path d="M2,2H3V3H2zM3,2H4V3H3zM4,2H5V3H4zM5,2H6V3H5zM6,2H7V3H6zM7,2H8V3H7zM8,2H9V3H8zM10,2H11V3H10zM14,2H15V3H14zM17,2H18V3H17zM18,2H19V3H18zM20,2H21V3H20zM21,2H22V3H21zM23,2H24V3H23zM24,2H25V3H24zM27,2H28V3H27zM28,2H29V3H28zM32,2H33V3H32zM33,2H34V3H33zM34,2H35V3H34zM35,2H36V3H35zM36,2H37V3H36zM37,2H38V3H37zM38,2H39V3H38zM2,3H3V4H2zM8,3H9V4H8zM10,3H11V4H10zM13,3H14V4H13zM14,3H15V4H14zM15,3H16V4H15zM16,3H17V4H16zM18,3H19V4H18zM19,3H20V4H19zM22,3H23V4H22zM24,3H25V4H24zM26,3H27V4H26zM27,3H28V4H27zM30,3H31V4H30zM32,3H33V4H32zM38,3H39V4H38zM2,4H3V5H2zM4,4H5V5H4zM5,4H6V5H5zM6,4H7V5H6zM8,4H9V5H8zM10,4H11V5H10zM11,4H12V5H11zM13,4H14V5H13zM15,4H16V5H15zM17,4H18V5H17zM18,4H19V5H18zM20,4H21V5H20zM22,4H23V5H22zM23,4H24V5H23zM24,4H25V5H24zM25,4H26V5H25zM27,4H28V5H27zM28,4H29V5H28zM29,4H30V5H29zM30,4H31V5H30zM32,4H33V5H32zM34,4H35V5H34zM35,4H36V5H35zM36,4H37V5H36zM38,4H39V5H38zM2,5H3V6H2zM4,5H5V6H4zM5,5H6V6H5zM6,5H7V6H6zM8,5H9V6H8zM12,5H13V6H12zM14,5H15V6H14zM17,5H18V6H17zM19,5H20V6H19zM21,5H22V6H21zM22,5H23V6H22zM23,5H24V6H23zM25,5H26V6H25zM30,5H31V6H30zM32,5H33V6H32zM34,5H35V6H34zM35,5H36V6H35zM36,5H37V6H36zM38,5H39V6H38zM2,6H3V7H2zM4,6H5V7H4zM5,6H6V7H5zM6,6H7V7H6zM8,6H9V7H8zM10,6H11V7H10zM13,6H14V7H13zM15,6H16V7H15zM18,6H19V7H18zM19,6H20V7H19zM21,6H22V7H21zM27,6H28V7H27zM29,6H30V7H29zM30,6H31V7H30zM32,6H33V7H32zM34,6H35V7H34zM35,6H36V7H35zM36,6H37V7H36zM38,6H39V7H38zM2,7H3V8H2zM8,7H9V8H8zM11,7H12V8H11zM14,7H15V8H14zM15,7H16V8H15zM18,7H19V8H18zM19,7H20V8H19zM20,7H21V8H20zM24,7H25V8H24zM25,7H26V8H25zM28,7H29V8H28zM32,7H33V8H32zM38,7H39V8H38zM2,8H3V9H2zM3,8H4V9H3zM4,8H5V9H4zM5,8H6V9H5zM6,8H7V9H6zM7,8H8V9H7zM8,8H9V9H8zM10,8H11V9H10zM12,8H13V9H12zM14,8H15V9H14zM16,8H17V9H16zM18,8H19V9H18zM20,8H21V9H20zM22,8H23V9H22zM24,8H25V9H24zM26,8H27V9H26zM28,8H29V9H28zM30,8H31V9H30zM32,8H33V9H32zM33,8H34V9H33zM34,8H35V9H34zM35,8H36V9H35zM36,8H37V9H36zM37,8H38V9H37zM38,8H39V9H38zM14,9H15V10H14zM15,9H16V10H15zM17,9H18V10H17zM21,9H22V10H21zM26,9H27V10H26zM27,9H28V10H27zM28,9H29V10H28zM29,9H30V10H29zM2,10H3V11H2zM5,10H6V11H5zM6,10H7V11H6zM7,10H8V11H7zM8,10H9V11H8zM9,10H10V11H9zM10,10H11V11H10zM13,10H14V11H13zM14,10H15V11H14zM17,10H18V11H17zM18,10H19V11H18zM20,10H21V11H20zM22,10H23V11H22zM25,10H26V11H25zM26,10H27V11H26zM28,10H29V11H28zM29,10H30V11H29zM30,10H31V11H30zM31,10H32V11H31zM34,10H35V11H34zM36,10H37V11H36zM37,10H38V11H37zM38,10H39V11H38zM5,11H6V12H5zM6,11H7V12H6zM9,11H10V12H9zM10,11H11V12H10zM14,11H15V12H14zM15,11H16V12H15zM16,11H17V12H16zM19,11H20V12H19zM22,11H23V12H22zM23,11H24V12H23zM25,11H26V12H25zM26,11H27V12H26zM29,11H30V12H29zM33,11H34V12H33zM34,11H35V12H34zM35,11H36V12H35zM37,11H38V12H37zM4,12H5V13H4zM6,12H7V13H6zM8,12H9V13H8zM9,12H10V13H9zM12,12H13V13H12zM13,12H14V13H13zM15,12H16V13H15zM16,12H17V13H16zM19,12H20V13H19zM20,12H21V13H20zM23,12H24V13H23zM25,12H26V13H25zM26,12H27V13H26zM27,12H28V13H27zM28,12H29V13H28zM29,12H30V13H29zM30,12H31V13H30zM31,12H32V13H31zM34,12H35V13H34zM38,12H39V13H38zM2,13H3V14H2zM4,13H5V14H4zM6,13H7V14H6zM9,13H10V14H9zM12,13H13V14H12zM13,13H14V14H13zM15,13H16V14H15zM17,13H18V14H17zM19,13H20V14H19zM24,13H25V14H24zM25,13H26V14H25zM29,13H30V14H29zM30,13H31V14H30zM32,13H33V14H32zM33,13H34V14H33zM34,13H35V14H34zM35,13H36V14H35zM36,13H37V14H36zM37,13H38V14H37zM38,13H39V14H38zM3,14H4V15H3zM4,14H5V15H4zM7,14H8V15H7zM8,14H9V15H8zM10,14H11V15H10zM12,14H13V15H12zM18,14H19V15H18zM20,14H21V15H20zM21,14H22V15H21zM22,14H23V15H22zM25,14H26V15H25zM26,14H27V15H26zM27,14H28V15H27zM29,14H30V15H29zM32,14H33V15H32zM34,14H35V15H34zM38,14H39V15H38zM4,15H5V16H4zM6,15H7V16H6zM9,15H10V16H9zM10,15H11V16H10zM11,15H12V16H11zM13,15H14V16H13zM17,15H18V16H17zM18,15H19V16H18zM19,15H20V16H19zM20,15H21V16H20zM24,15H25V16H24zM25,15H26V16H25zM27,15H28V16H27zM28,15H29V16H28zM30,15H31V16H30zM32,15H33V16H32zM34,15H35V16H34zM35,15H36V16H35zM2,16H3V17H2zM3,16H4V17H3zM4,16H5V17H4zM5,16H6V17H5zM6,16H7V17H6zM7,16H8V17H7zM8,16H9V17H8zM9,16H10V17H9zM10,16H11V17H10zM11,16H12V17H11zM12,16H13V17H12zM17,16H18V17H17zM19,16H20V17H19zM21,16H22V17H21zM22,16H23V17H22zM23,16H24V17H23zM27,16H28V17H27zM28,16H29V17H28zM29,16H30V17H29zM31,16H32V17H31zM34,16H35V17H34zM35,16H36V17H35zM36,16H37V17H36zM37,16H38V17H37zM38,16H39V17H38zM4,17H5V18H4zM5,17H6V18H5zM6,17H7V18H6zM9,17H10V18H9zM10,17H11V18H10zM11,17H12V18H11zM12,17H13V18H12zM13,17H14V18H13zM14,17H15V18H14zM17,17H18V18H17zM19,17H20V18H19zM20,17H21V18H20zM21,17H22V18H21zM24,17H25V18H24zM25,17H26V18H25zM28,17H29V18H28zM32,17H33V18H32zM33,17H34V18H33zM35,17H36V18H35zM36,17H37V18H36zM37,17H38V18H37zM38,17H39V18H38zM2,18H3V19H2zM5,18H6V19H5zM6,18H7V19H6zM8,18H9V19H8zM9,18H10V19H9zM11,18H12V19H11zM12,18H13V19H12zM15,18H16V19H15zM16,18H17V19H16zM18,18H19V19H18zM19,18H20V19H19zM21,18H22V19H21zM22,18H23V19H22zM24,18H25V19H24zM25,18H26V19H25zM26,18H27V19H26zM27,18H28V19H27zM28,18H29V19H28zM29,18H30V19H29zM30,18H31V19H30zM32,18H33V19H32zM36,18H37V19H36zM38,18H39V19H38zM2,19H3V20H2zM4,19H5V20H4zM6,19H7V20H6zM9,19H10V20H9zM10,19H11V20H10zM11,19H12V20H11zM15,19H16V20H15zM18,19H19V20H18zM20,19H21V20H20zM22,19H23V20H22zM24,19H25V20H24zM27,19H28V20H27zM29,19H30V20H29zM31,19H32V20H31zM33,19H34V20H33zM36,19H37V20H36zM5,20H6V21H5zM6,20H7V21H6zM8,20H9V21H8zM12,20H13V21H12zM13,20H14V21H13zM15,20H16V21H15zM17,20H18V21H17zM19,20H20V21H19zM22,20H23V21H22zM23,20H24V21H23zM25,20H26V21H25zM29,20H30V21H29zM34,20H35V21H34zM38,20H39V21H38zM2,21H3V22H2zM6,21H7V22H6zM9,21H10V22H9zM11,21H12V22H11zM14,21H15V22H14zM15,21H16V22H15zM16,21H17V22H16zM24,21H25V22H24zM26,21H27V22H26zM27,21H28V22H27zM28,21H29V22H28zM30,21H31V22H30zM31,21H32V22H31zM33,21H34V22H33zM34,21H35V22H34zM38,21H39V22H38zM5,22H6V23H5zM6,22H7V23H6zM8,22H9V23H8zM9,22H10V23H9zM11,22H12V23H11zM12,22H13V23H12zM14,22H15V23H14zM16,22H17V23H16zM17,22H18V23H17zM18,22H19V23H18zM19,22H20V23H19zM26,22H27V23H26zM27,22H28V23H27zM28,22H29V23H28zM31,22H32V23H31zM32,22H33V23H32zM33,22H34V23H33zM34,22H35V23H34zM35,22H36V23H35zM2,23H3V24H2zM4,23H5V24H4zM5,23H6V24H5zM6,23H7V24H6zM13,23H14V24H13zM14,23H15V24H14zM15,23H16V24H15zM16,23H17V24H16zM17,23H18V24H17zM18,23H19V24H18zM20,23H21V24H20zM21,23H22V24H21zM22,23H23V24H22zM23,23H24V24H23zM24,23H25V24H24zM25,23H26V24H25zM27,23H28V24H27zM28,23H29V24H28zM31,23H32V24H31zM32,23H33V24H32zM34,23H35V24H34zM36,23H37V24H36zM2,24H3V25H2zM3,24H4V25H3zM5,24H6V25H5zM6,24H7V25H6zM8,24H9V25H8zM10,24H11V25H10zM11,24H12V25H11zM12,24H13V25H12zM13,24H14V25H13zM15,24H16V25H15zM17,24H18V25H17zM18,24H19V25H18zM19,24H20V25H19zM20,24H21V25H20zM23,24H24V25H23zM24,24H25V25H24zM25,24H26V25H25zM26,24H27V25H26zM29,24H30V25H29zM30,24H31V25H30zM31,24H32V25H31zM33,24H34V25H33zM35,24H36V25H35zM38,24H39V25H38zM3,25H4V26H3zM9,25H10V26H9zM11,25H12V26H11zM13,25H14V26H13zM19,25H20V26H19zM21,25H22V26H21zM22,25H23V26H22zM28,25H29V26H28zM32,25H33V26H32zM33,25H34V26H33zM34,25H35V26H34zM35,25H36V26H35zM36,25H37V26H36zM37,25H38V26H37zM38,25H39V26H38zM3,26H4V27H3zM4,26H5V27H4zM6,26H7V27H6zM8,26H9V27H8zM9,26H10V27H9zM10,26H11V27H10zM13,26H14V27H13zM14,26H15V27H14zM16,26H17V27H16zM17,26H18V27H17zM18,26H19V27H18zM19,26H20V27H19zM20,26H21V27H20zM26,26H27V27H26zM30,26H31V27H30zM32,26H33V27H32zM33,26H34V27H33zM38,26H39V27H38zM2,27H3V28H2zM3,27H4V28H3zM4,27H5V28H4zM5,27H6V28H5zM7,27H8V28H7zM9,27H10V28H9zM10,27H11V28H10zM12,27H13V28H12zM13,27H14V28H13zM14,27H15V28H14zM15,27H16V28H15zM18,27H19V28H18zM19,27H20V28H19zM21,27H22V28H21zM22,27H23V28H22zM25,27H26V28H25zM27,27H28V28H27zM28,27H29V28H28zM29,27H30V28H29zM34,27H35V28H34zM35,27H36V28H35zM36,27H37V28H36zM2,28H3V29H2zM3,28H4V29H3zM4,28H5V29H4zM6,28H7V29H6zM8,28H9V29H8zM12,28H13V29H12zM14,28H15V29H14zM16,28H17V29H16zM18,28H19V29H18zM21,28H22V29H21zM22,28H23V29H22zM24,28H25V29H24zM27,28H28V29H27zM29,28H30V29H29zM30,28H31V29H30zM31,28H32V29H31zM32,28H33V29H32zM34,28H35V29H34zM37,28H38V29H37zM38,28H39V29H38zM2,29H3V30H2zM7,29H8V30H7zM9,29H10V30H9zM10,29H11V30H10zM14,29H15V30H14zM15,29H16V30H15zM17,29H18V30H17zM22,29H23V30H22zM24,29H25V30H24zM29,29H30V30H29zM31,29H32V30H31zM32,29H33V30H32zM34,29H35V30H34zM35,29H36V30H35zM36,29H37V30H36zM37,29H38V30H37zM2,30H3V31H2zM4,30H5V31H4zM5,30H6V31H5zM6,30H7V31H6zM8,30H9V31H8zM9,30H10V31H9zM12,30H13V31H12zM13,30H14V31H13zM14,30H15V31H14zM15,30H16V31H15zM18,30H19V31H18zM22,30H23V31H22zM25,30H26V31H25zM26,30H27V31H26zM30,30H31V31H30zM31,30H32V31H31zM32,30H33V31H32zM33,30H34V31H33zM34,30H35V31H34zM36,30H37V31H36zM38,30H39V31H38zM10,31H11V32H10zM14,31H15V32H14zM17,31H18V32H17zM20,31H21V32H20zM21,31H22V32H21zM22,31H23V32H22zM23,31H24V32H23zM24,31H25V32H24zM26,31H27V32H26zM30,31H31V32H30zM34,31H35V32H34zM36,31H37V32H36zM2,32H3V33H2zM3,32H4V33H3zM4,32H5V33H4zM5,32H6V33H5zM6,32H7V33H6zM7,32H8V33H7zM8,32H9V33H8zM10,32H11V33H10zM12,32H13V33H12zM13,32H14V33H13zM14,32H15V33H14zM16,32H17V33H16zM17,32H18V33H17zM18,32H19V33H18zM21,32H22V33H21zM23,32H24V33H23zM25,32H26V33H25zM28,32H29V33H28zM30,32H31V33H30zM32,32H33V33H32zM34,32H35V33H34zM38,32H39V33H38zM2,33H3V34H2zM8,33H9V34H8zM10,33H11V34H10zM11,33H12V34H11zM13,33H14V34H13zM15,33H16V34H15zM17,33H18V34H17zM18,33H19V34H18zM19,33H20V34H19zM20,33H21V34H20zM21,33H22V34H21zM22,33H23V34H22zM27,33H28V34H27zM28,33H29V34H28zM30,33H31V34H30zM34,33H35V34H34zM37,33H38V34H37zM38,33H39V34H38zM2,34H3V35H2zM4,34H5V35H4zM5,34H6V35H5zM6,34H7V35H6zM8,34H9V35H8zM10,34H11V35H10zM11,34H12V35H11zM12,34H13V35H12zM13,34H14V35H13zM15,34H16V35H15zM23,34H24V35H23zM24,34H25V35H24zM26,34H27V35H26zM28,34H29V35H28zM29,34H30V35H29zM30,34H31V35H30zM31,34H32V35H31zM32,34H33V35H32zM33,34H34V35H33zM34,34H35V35H34zM2,35H3V36H2zM4,35H5V36H4zM5,35H6V36H5zM6,35H7V36H6zM8,35H9V36H8zM10,35H11V36H10zM12,35H13V36H12zM13,35H14V36H13zM18,35H19V36H18zM20,35H21V36H20zM23,35H24V36H23zM24,35H25V36H24zM25,35H26V36H25zM27,35H28V36H27zM31,35H32V36H31zM32,35H33V36H32zM36,35H37V36H36zM38,35H39V36H38zM2,36H3V37H2zM4,36H5V37H4zM5,36H6V37H5zM6,36H7V37H6zM8,36H9V37H8zM11,36H12V37H11zM14,36H15V37H14zM16,36H17V37H16zM17,36H18V37H17zM18,36H19V37H18zM19,36H20V37H19zM21,36H22V37H21zM22,36H23V37H22zM24,36H25V37H24zM25,36H26V37H25zM26,36H27V37H26zM29,36H30V37H29zM32,36H33V37H32zM34,36H35V37H34zM36,36H37V37H36zM38,36H39V37H38zM2,37H3V38H2zM8,37H9V38H8zM13,37H14V38H13zM14,37H15V38H14zM18,37H19V38H18zM19,37H20V38H19zM21,37H22V38H21zM22,37H23V38H22zM24,37H25V38H24zM26,37H27V38H26zM28,37H29V38H28zM34,37H35V38H34zM35,37H36V38H35zM36,37H37V38H36zM37,37H38V38H37zM38,37H39V38H38zM2,38H3V39H2zM3,38H4V39H3zM4,38H5V39H4zM5,38H6V39H5zM6,38H7V39H6zM7,38H8V39H7zM8,38H9V39H8zM10,38H11V39H10zM11,38H12V39H11zM12,38H13V39H12zM14,38H15V39H14zM16,38H17V39H16zM17,38H18V39H17zM18,38H19V39H18zM22,38H23V39H22zM25,38H26V39H25zM26,38H27V39H26zM27,38H28V39H27zM30,38H31V39H30zM33,38H34V39H33zM35,38H36V39H35zM38,38H39V39H38z" id="qr-path" fill="#000000" fill-opacity="1" fill-rule="nonzero" stroke="none"/></svg>